<?xml version="1.0" encoding="UTF-8"?>
<svg xmlns="http://www.w3.org/2000/svg" id="Layer_3" data-name="Layer 3" viewBox="0 0 64 64" width="512" height="512"><path d="M63,11V9A8,8,0,0,0,47,9v2a8,8,0,0,0,4.284,7.078A7,7,0,0,0,48,24v.586L46.586,26H41V23a1,1,0,0,0-1-1H38V17a1,1,0,0,0-1-1H33V12H31v4H27a1,1,0,0,0-1,1v5H24a1,1,0,0,0-1,1v3H17.414L16,24.586V24a7,7,0,0,0-3.284-5.922A8,8,0,0,0,17,11V9A8,8,0,0,0,1,9v2a8,8,0,0,0,4.284,7.078A7,7,0,0,0,2,24V38a1,1,0,0,0,1,1V61.829C3,62.943,3.832,63,4,63H14a1,1,0,0,0,1-1V61a4.005,4.005,0,0,0-3.781-3.994L14.82,39H15a1,1,0,0,0,1-1V32h9a3,3,0,0,0,2.816-2h8.368A3,3,0,0,0,39,32h9v6a1,1,0,0,0,1,1h.18l3.6,18.006A4.005,4.005,0,0,0,49,61v1a1,1,0,0,0,1,1H60c.167,0,1-.057,1-1.171V39a1,1,0,0,0,1-1V24a7,7,0,0,0-3.284-5.922A8,8,0,0,0,63,11ZM55,3a6.006,6.006,0,0,1,6,6v2a5.948,5.948,0,0,1-.9,3.138L56,10.546V7a1,1,0,0,0-1-1H49.812A6,6,0,0,1,55,3ZM28,18h8v4H28Zm-3,6H39v2a3,3,0,0,0-2.816,2H27.816A3,3,0,0,0,25,26ZM3,9A5.995,5.995,0,0,1,14.188,6H9A1,1,0,0,0,8,7v3.546L3.9,14.138A5.948,5.948,0,0,1,3,11Zm2.209,6.646,4.449-3.894A1,1,0,0,0,10,11V8h4.91A6,6,0,0,1,15,9v2a5.971,5.971,0,0,1-1.441,3.891A2.6,2.6,0,0,1,11.9,13.553l-1.79.894a4.625,4.625,0,0,0,1.7,1.853,5.98,5.98,0,0,1-6.6-.654ZM4,24a4.99,4.99,0,0,1,9.668-1.746l-1.133-1.132a3.828,3.828,0,0,0-5.414,5.414l1.172,1.171a1.832,1.832,0,0,0,.152.125L14,31.535V37H4Zm5,1.586-.465-.464A1.829,1.829,0,0,1,9.828,22a1.839,1.839,0,0,1,1.293.536l.465.464ZM13,61H5c0-.611,0-1.388,0-2h6A2,2,0,0,1,13,61ZM9.18,57H5V39h7.78ZM25,30H15.3L10.57,26.845,13,24.414l3.293,3.293A1,1,0,0,0,17,28h8a1,1,0,0,1,0,2Zm13-1a1,1,0,0,1,1-1h8a1,1,0,0,0,.707-.293L51,24.414l2.43,2.431L48.7,30H39A1,1,0,0,1,38,29Zm17-3.414L52.414,23l.465-.465A1.829,1.829,0,0,1,56,23.829a1.819,1.819,0,0,1-.535,1.293ZM51.22,39H59V57H54.82ZM51,61a2,2,0,0,1,2-2h6c0,.612,0,1.389,0,2Zm9-37V37H50V31.535l5.555-3.7a1.832,1.832,0,0,0,.152-.125l1.172-1.172a3.828,3.828,0,1,0-5.414-5.413l-1.133,1.132A4.99,4.99,0,0,1,60,24Zm-8.665-8.26a4.591,4.591,0,0,0,2.624-2.293l-1.789-.894A2.6,2.6,0,0,1,49.828,14h-.016A5.958,5.958,0,0,1,49,11V9a6,6,0,0,1,.09-1H54v3a1,1,0,0,0,.342.752l4.449,3.894a5.972,5.972,0,0,1-7.456.094Z"/><rect x="31" y="5" width="2" height="4"/><rect x="36" y="12" width="4" height="2"/><rect x="24" y="12" width="4" height="2"/><rect x="34.379" y="7.5" width="4.243" height="2" transform="translate(4.68 28.299) rotate(-45)"/><rect x="26.5" y="6.379" width="2" height="4.243" transform="translate(2.044 21.935) rotate(-45)"/></svg>
