<svg height="512" viewBox="0 0 46 60" width="512" xmlns="http://www.w3.org/2000/svg"><g id="Page-1" fill="none" fill-rule="evenodd"><g id="025---Cupcake" fill="rgb(0,0,0)" fill-rule="nonzero" transform="translate(-1)"><path id="Shape" d="m4.159 41.019c1.46337097 6.3325691 4.192042 12.3038755 8.022 17.555 1.328 1.9 22.308 1.9 23.638 0 3.829958-5.2511245 6.558629-11.2224309 8.022-17.555 2.877-2.141 3.616-5.281 2.888-8.787-.6666768-2.6491579-1.7795822-5.1654535-3.291-7.441.0059569-.7702897-.1850906-1.5293161-.555-2.205-1.22-2.932-5.221-6.081-8.318-7.6 1.0000309-2.4888943.6904684-5.31285474-.825-7.526-1.4674478-1.95777221-3.9982544-2.79552345-6.344-2.1 1.452-3.754 3.989-4.2 7.428-2.143.4723647.26900385 1.0731021.11140321 1.3525776-.35484239.2794755-.46624559.1353168-1.0703496-.3245776-1.36015761-4.859-2.911-8.51-1.391-10.264 2.998-1.4661444-1.77541036-3.8381344-2.52443922-6.058-1.913-4.237 1.185-7.155 6.641-4.551 12.086-4.5 1.9-9.95 5.342-11.18 10.069-.11791026.4985561-.15170873 1.0133068-.1 1.523-2.936 5.235-4.399 11.143.46 14.754zm30.2 16.152c-3.6 1.114-17.134 1.111-20.716 0-3.2091909-4.5088289-5.61960809-9.5356617-7.126-14.861 3.545 1.344 8.289 1.192 11.062-1.728.0912327-.0899541.1711559-.1906976.238-.3 1.2080637 2.2863548 3.5813016 3.717328 6.1671931 3.7185856 2.5858915.0012575 4.96052-1.4274068 6.1708069-3.7125856 2.642 3.131 7.54 3.463 11.327 2.027-1.5062817 5.3232868-3.915637 10.34833-7.123 14.856zm-16.288-51.51c2.678-2.362 5.675-1.064 6.441.891.2230396.53901873.6681069.95537369 1.2207812 1.14202582.5526742.18665213 1.1590435.12539399 1.6632188-.16802582 1.646093-.82017772 3.6432832-.34383396 4.742 1.131.4571407.6390914.7613014 1.3746881.889 2.15.607 3.2-1.3 6.245-4.576 7.571-2.1357169.134066-4.2770051.1557627-6.415.065-6.059-2.143-7.904-9.237-3.965-12.782zm-12.333 19.571c1.058-4.061 6.408-7.241 10.274-8.825.4434026.6034927.9484611 1.1591577 1.507 1.658-.222-.03-.349-.05-.357-.052-.545105-.0894701-1.0595298.279895-1.149.825-.0894701.545105.279895 1.0595298.825 1.149 5.1169016.6864786 10.3016918.6995902 15.422.039.455257-.0561744.8126274-.4171553.8642227-.8729539.0515954-.4557986-.2160419-.887529-.6472227-1.0440461.4205298-.409337.8012386-.8576827 1.137-1.339 2.985 1.455 6.833 4.373 7.828 7.587-2.488-.666-3.922-1.486-5.264-.7-1.882 1.123-.837 3.618-.765 4.521.0663351.6236861-.118647 1.2480906-.514 1.735-.05.041-.138.107-.4.023-1.425-.467-2.074-5.656-5.861-6.635-1.6060087-.4810469-3.3295038.2280387-4.132 1.7-.815 1.694.1 3.2-.266 4.364-.1185082.404568-.4537931.7085647-.868.787-.3294352.0393203-.6452515-.1436494-.775-.449-.137-.466.241-1.243.343-2.111.2021507-1.9850164-1.0705011-3.8218772-3-4.33-1.6143432-.35028-3.2776765.3299215-4.184 1.711-1.677 2.611.781 5.691-.143 7.277-.2907102.5068-.8731725.7706319-1.4458576.654915-.5726852-.1157169-1.0070137-.5850017-1.0781424-1.164915-.164-1.314 1.464-3.15.7-5.142s-3.556-2.825-5.713-.869c-.6.556-1.2 1.29-1.635 1.359s-1.006-.624-.703-1.856zm-.966 3.254c.54781925.4758147 1.27623979.6884229 1.994.582.88757138-.2249381 1.67732131-.7337633 2.249-1.449.4516282-.6365416 1.1897126-1.0074571 1.97-.99.4110315.0524478.7663554.3122383.941.688.406 1.063-1.06 2.756-.817 4.686.1813903 1.4286155 1.2537554 2.582389 2.6653061 2.8676422s2.8477891-.361569 3.5696939-1.6076422c1.486-2.551-1-5.493.092-7.194.4498645-.6677426 1.2536072-1.0041748 2.045-.856.9405122.2747074 1.5576087 1.1735947 1.476 2.15-.3171061.9335905-.4119549 1.9283042-.277 2.905.4036609 1.2459432 1.6326241 2.0320104 2.933 1.876 1.2017453-.1665377 2.1952601-1.0200768 2.541-2.183.5-1.582-.281-3.176.158-4.088.3985467-.5902577 1.1375505-.8485226 1.817-.635 1.884.488 2.73 2.973 3.7 4.675 1.277 2.254 3.15 2.477 4.3 1.58.9324461-.8976864 1.402581-2.1728719 1.276-3.461-.0348915-.3367387-.0920161-.6708011-.171-1-.544-2.542-.1-1.761 3.731-.736.3469031.0899989.7102412.0961688 1.06.018 1.2549971 1.94413 2.1820129 4.0812662 2.744 6.326.711 3.408-.3 6.138-3.453 7.575-3.035 1.373-7.474 1.35-9.633-1.221-.4235573-.4990221-1.0655177-.7577138-1.7167306-.6917934-.651213.0659203-1.2283086.4480134-1.5432694 1.0217934-.8163648 1.6873162-2.5495279 2.7359132-4.423 2.676-1.8730385.0616208-3.6068809-.9849539-4.425-2.671-.3149727-.574446-.8926206-.9569497-1.5444442-1.0226916-.6518235-.0657419-1.2942182.1937104-1.7175558.6936916-2.135 2.552-6.572 2.6-9.629 1.22-4.798-2.185-4.277-7.045-1.912-11.734z"/><path id="Shape" d="m13.949 45.684c-.1128959-.3394023-.398285-.5927937-.748664-.6647242-.350379-.0719304-.712517.0485281-.95.316-.2374831.2674719-.3142319.6413219-.201336.9807242.084.25 2.066 6.163 4.117 9.239.1982824.297245.5400812.4661283.8966441.4430332s.6737195-.2346599.832-.555.1336383-.7007882-.0646441-.9980332c-1.9-2.852-3.862-8.702-3.881-8.761z"/><path id="Shape" d="m21 46c-.5522847 0-1 .4477153-1 1v7c0 .5522847.4477153 1 1 1s1-.4477153 1-1v-7c0-.5522847-.4477153-1-1-1z"/><path id="Shape" d="m35.316 45.051c-.2516889-.0838718-.5263908-.0642936-.763641.0544253-.2372501.1187188-.4176022.3268475-.501359.5785747-.019.059-1.979 5.906-3.883 8.761-.1982824.297245-.2229246.6776931-.0646441.9980331.1582805.3203401.4754371.5319049.832.555s.6983617-.1457881.8966441-.4430331c2.051-3.076 4.033-8.989 4.117-9.239.0838718-.2516889.0642936-.5263908-.0544253-.763641-.1187188-.2372501-.3268475-.4176022-.5785747-.501359z"/><path id="Shape" d="m27 46c-.5522847 0-1 .4477153-1 1v7c0 .5522847.4477153 1 1 1s1-.4477153 1-1v-7c0-.5522847-.4477153-1-1-1z"/><path id="Shape" d="m18.359 9.836c.5174883.1926787 1.0932023-.07055601 1.286-.588.1096185-.35050593.2957741-.67226478.545-.942.1452519-.15380355.3474494-.24097638.559-.241.3566351.06113594.7184768-.07515207.9461629-.35637312.227686-.28122105.2856953-.66350204.1516856-.99960863-.1340096-.33610659-.4391313-.57360301-.7978485-.62101825-.8283968-.10090877-1.6570501.18576247-2.246.777-.4691702.47508792-.8223387 1.05206677-1.032 1.686-.192019.51719809.0710935 1.09219739.588 1.285z"/></g></g></svg>