<?xml version="1.0" ?><svg viewBox="0 0 512 512" xmlns="http://www.w3.org/2000/svg"><title/><g id="Cupcake"><path d="M356.7847,202.8174c-3.5174-9.0879-9.9119-17.64-18.86-25.0169-4.55-12.2212-16.2629-22.6982-33.1809-29.8789A45.026,45.026,0,0,0,284.8672,115.71a37.989,37.989,0,0,1,7.5906-4.74,5.0992,5.0992,0,0,0-4.3081-9.2437,47.9862,47.9862,0,0,0-13.0826,9.0371,44.98,44.98,0,0,0-59.6958,34.1936c-20.9882,6.9438-35.8342,18.7325-41.0925,32.8435-8.94,7.37-15.3325,15.9139-18.8518,24.992-18.54,18.3166-28.7642,41.3889-28.7642,65.0425,0,12.0407,8.8284,20.47,19.1563,28.0306l19.3079,68.9988c7.4309,26.6505,45.6909,45.992,90.9733,45.992s83.5423-19.3415,90.9707-45.987l19.3116-69.0032c10.3286-7.5607,19.1577-15.9889,19.1577-28.0312C385.54,244.1858,375.3157,221.1361,356.7847,202.8174ZM239.7271,157.1166a5.0945,5.0945,0,0,1,6.7758,2.4679,14.5843,14.5843,0,0,0,8.2852,7.59,5.0994,5.0994,0,1,1-3.4915,9.5825,24.7057,24.7057,0,0,1-14.0373-12.8645A5.0981,5.0981,0,0,1,239.7271,157.1166Zm-57.888,27.6864a5.0182,5.0182,0,0,0,1.8079-2.9136c3.6172-10.4138,14.9692-19.8076,30.9721-25.8965a45.2485,45.2485,0,0,0,90.0826,3.0733c12.23,5.9712,20.75,14.0208,23.82,22.7212a5.0688,5.0688,0,0,0,1.8379,3.0131c12.6753,10.0357,19.3741,21.9539,19.3741,34.4624,0,31.3594-42.0027,56.8719-93.6329,56.8719-51.6276,0-93.63-25.5125-93.63-56.8719C162.47,206.7568,169.1663,194.8411,181.8391,184.803Zm155.408,177.3221c-6.1236,21.9665-41.0093,38.5314-81.1468,38.5314s-75.0232-16.5649-81.1491-38.5364l-15.9383-56.9529c1.3592.9628,2.7583,1.8941,4.07,2.885,3.6209,2.7393,7.2217,6.6888,11.0369,10.87,7.904,8.666,16.8662,18.4925,29.9675,21.9563a33.7564,33.7564,0,0,0,8.6709,1.0584c7.2017,0,14.6326-1.8627,21.8867-3.6831,7.1543-1.7954,14.55-3.6507,21.4558-3.6507s14.304,1.8553,21.4559,3.6507c10.2175,2.5625,20.7761,5.2121,30.5676,2.6223,13.1011-3.4665,22.061-13.2879,29.9651-21.9564,3.8125-4.1811,7.4133-8.1281,11.0341-10.8674,1.31-.9906,2.7071-1.92,4.0647-2.8825Z"/><path d="M302.6677,230.9944a5.0906,5.0906,0,0,0,1.9846-.406c12.9444-5.4785,22.9676-13.0188,28.9839-21.8045a5.1,5.1,0,1,0-8.417-5.7624c-4.9106,7.1719-13.3974,13.4573-24.5412,18.1738a5.1016,5.1016,0,0,0,1.99,9.7991Z"/><path d="M231.3772,237.5786a136.0251,136.0251,0,0,0,16.9612,1.9846c.0945.005.1865.0076.2812.0076a5.1,5.1,0,0,0,.2715-10.1926A125.4861,125.4861,0,0,1,233.21,227.543a5.1008,5.1008,0,0,0-1.8328,10.0356Z"/><path d="M205.3169,229.61a5.1,5.1,0,0,0,4.2136-9.2886c-10.1352-4.6-17.9223-10.5662-22.5193-17.26a5.0989,5.0989,0,0,0-8.407,5.7723C184.252,217.0591,193.4907,224.2434,205.3169,229.61Z"/></g></svg>