<svg xmlns="http://www.w3.org/2000/svg" width="22" height="20.03" viewBox="0 0 22 20.03">
  <defs>
    <style>
      .cls-1 {
        fill: #68b0c9;
        fill-rule: evenodd;
      }
    </style>
  </defs>
  <path id="иконка" class="cls-1" d="M1146,2317s-1.98.54-2-3c-0.03-3.6,4-3,4-3h2s-2.9-.4-3-2c-0.13-2.09,2.19-2.91,3-3,3.08-.33,3.94,3,3.94,3l2.03,0.01s2.37-2.99,4.03-3.01c1.85-.02,2.97.81,3.06,3.3,0.05,1.36-2.06,1.7-2.06,1.7h3s1.98,0.12,2,3a3.1,3.1,0,0,1-2,3v9h-18v-9Zm2,1h5v6h-5v-6Zm9,0v6h5v-6h-5Zm-4-5v3h-6a0.911,0.911,0,0,1-1-1c-0.1-1.86,1-2,1-2h6Zm4,0v3h6a0.929,0.929,0,0,0,1-1c0.14-2.07-1-2-1-2h-6Zm-4-3s-4.06.34-4-1,2.31-1.88,3-1A6.392,6.392,0,0,1,1153,2310Zm4,0s1.66-2.09,3-2,2.22,1.44,1,2S1157,2310,1157,2310Z" transform="translate(-1144 -2305.97)"/>
</svg>
